<svg width="40" height="40" viewBox="0 0 40 40" fill="none" xmlns="http://www.w3.org/2000/svg">
<path fill-rule="evenodd" clip-rule="evenodd" d="M40 21.0023L21.0013 40H0V18.9977L18.9987 0L40 21.0023ZM19.8075 33.8115C18.2128 33.8115 16.9202 32.517 16.9226 30.9224L16.9226 28.5512L15.7024 29.7731L15.7024 29.7732C15.6517 29.824 15.6009 29.8748 15.5478 29.9183L15.5502 32.2C15.5502 33.4727 14.5209 34.5035 13.25 34.5035C11.9815 34.5011 10.9522 33.4703 10.9498 32.2L10.9498 29.9836L8.73658 29.9836C7.46809 29.9812 6.4388 28.9505 6.4388 27.6826C6.4388 26.4147 7.46809 25.3791 8.739 25.3791L11.015 25.3791C11.0609 25.3283 11.1093 25.275 11.16 25.2242L12.3778 24.0047L10.0147 24.0047C8.42006 24.0047 7.12741 22.7102 7.12983 21.1157C7.12982 19.5188 8.42248 18.2243 10.0147 18.2267L17.4856 18.2267C17.6909 18.2243 17.8915 18.246 18.0848 18.2896L22.1633 14.2053C23.4197 12.9471 25.4541 12.9471 26.7081 14.2029C27.3339 14.8295 27.6504 15.6546 27.6504 16.4773C27.648 17.3024 27.3339 18.1251 26.7057 18.7542L22.6272 22.8385C22.6707 23.0321 22.6924 23.2329 22.6924 23.441L22.6924 30.9224C22.6948 32.517 21.4022 33.8115 19.8075 33.8115Z" fill="#2D998B"/>
</svg>
