<svg width="40" height="40" viewBox="0 0 40 40" fill="none" xmlns="http://www.w3.org/2000/svg">
<path fill-rule="evenodd" clip-rule="evenodd" d="M40 21.0023L21.0013 40H0V18.9977L18.9987 0L40 21.0023ZM25.3973 17.5005C26.1955 17.8465 26.9066 18.3617 27.4802 19.0094L27.4805 19.0103C28.4601 20.115 29 21.533 29 23.0009C29 24.4687 28.4601 25.8867 27.4805 26.9914C26.9153 27.6327 26.2151 28.1446 25.4288 28.4914C24.6424 28.8382 23.7889 29.0116 22.9277 28.9994C22.0665 28.9872 21.2183 28.7898 20.4424 28.4209C19.6664 28.0521 18.9814 27.5206 18.435 26.8636L20.6576 24.1628L21.0271 24.6108C21.1963 24.8388 21.4086 25.0324 21.6523 25.1808C22.074 25.4402 22.5625 25.5742 23.0593 25.5668C23.5561 25.5595 24.0403 25.4111 24.4539 25.1394C24.8675 24.8676 25.1931 24.4841 25.3916 24.0347C25.5902 23.5852 25.6533 23.0889 25.5736 22.6049C25.4938 22.121 25.2744 21.67 24.9417 21.3058C24.609 20.9416 24.1771 20.6797 23.6975 20.5514C23.218 20.423 22.7111 20.4337 22.2375 20.5821C21.7639 20.7306 21.3437 21.0104 21.0271 21.3883L19.7012 22.9994L17.5002 25.701L16.6497 26.742C16.2343 27.2571 15.7356 27.701 15.1738 28.056C13.9781 28.8061 12.5505 29.1108 11.1475 28.9154C9.74457 28.7201 8.45819 28.0375 7.51952 26.9902C6.53994 25.8855 6 24.4675 6 22.9997C6 21.5318 6.53994 20.1138 7.51952 19.0091C8.08363 18.3688 8.78235 17.8573 9.56708 17.5105C10.3518 17.1636 11.2037 16.9895 12.0635 17.0005C12.9233 17.0114 13.7704 17.2071 14.5458 17.5738C15.3212 17.9405 16.0063 18.4696 16.5535 19.1241L14.3542 21.7968L13.998 21.3641C13.8288 21.1361 13.6165 20.9425 13.3728 20.794C12.9515 20.5619 12.4794 20.4343 11.997 20.4222C11.634 20.4218 11.275 20.4966 10.9432 20.6418C10.6114 20.7869 10.3141 20.9992 10.0707 21.2649C9.83922 21.5179 9.66138 21.8139 9.54768 22.1358C9.43399 22.4576 9.38676 22.7986 9.40878 23.1387C9.43079 23.4788 9.5216 23.8111 9.67585 24.1161C9.83011 24.421 10.0447 24.6924 10.3069 24.9142C10.5692 25.136 10.8738 25.3037 11.2027 25.4075C11.5317 25.5112 11.8784 25.5489 12.2224 25.5184C12.5664 25.4878 12.9007 25.3896 13.2056 25.2295C13.5105 25.0694 13.7799 24.8507 13.9977 24.5863L15.3236 22.9752L17.4998 20.2735L18.3503 19.2325C18.8907 18.5575 19.5751 18.0083 20.3549 17.6237C21.1347 17.2392 21.9907 17.0288 22.8622 17.0075C23.7337 16.9862 24.5992 17.1545 25.3973 17.5005Z" fill="#7EA120"/>
</svg>
