<svg width="41" height="40" viewBox="0 0 41 40" fill="none" xmlns="http://www.w3.org/2000/svg">
<path fill-rule="evenodd" clip-rule="evenodd" d="M21.0306 40L40.0564 21.0024L19.0259 0L0 18.9976V40H21.0306ZM16.0907 14.3826C15.9974 14.5488 15.9014 14.7198 15.8006 14.898C15.7266 14.7662 15.6552 14.6386 15.5855 14.5142C15.4057 14.193 15.2374 13.8924 15.0653 13.5929C14.8152 13.1566 14.4109 13.0099 14.0404 13.2149C13.653 13.4274 13.5589 13.858 13.8072 14.3075C13.8821 14.443 13.9565 14.5787 14.0309 14.7143C14.2796 15.168 14.5281 15.6214 14.7945 16.0658C14.928 16.2877 14.9318 16.4513 14.802 16.6826C13.202 19.5469 11.607 22.414 10.0118 25.2813C9.40022 26.3806 8.78862 27.48 8.17672 28.5792C8.12194 28.6777 8.07302 28.7868 8.02397 28.8961C7.90633 29.1585 7.78796 29.4224 7.58622 29.5458C7.38968 29.6656 7.11026 29.6475 6.83026 29.6294C6.70571 29.6213 6.58104 29.6132 6.46351 29.6173H6.42778C5.95199 29.6305 5.61349 29.9445 5.62477 30.362C5.63605 30.7663 5.96515 31.0672 6.42402 31.0672C7.25059 31.0688 8.07717 31.0687 8.90374 31.0687C10.0612 31.0686 11.2186 31.0685 12.3761 31.0729C12.6751 31.0747 12.8443 30.9488 12.9515 30.6836C13.1059 30.3028 13.2687 29.9244 13.4313 29.5464C13.4727 29.4503 13.514 29.3542 13.5552 29.2581C13.7006 28.9195 13.8459 28.5809 13.9913 28.2421C14.4417 27.1923 14.8924 26.1419 15.3474 25.0926C15.4959 24.7522 15.8269 24.6338 16.062 24.8444C16.1699 24.9392 16.2354 25.0929 16.2951 25.2327L16.2971 25.2374C17.0662 27.0503 17.8316 28.8632 18.5895 30.6779C18.7005 30.9431 18.8622 31.0729 19.1593 31.0729C20.269 31.0697 21.3781 31.0695 22.4872 31.0693C23.3743 31.0691 24.2615 31.0689 25.149 31.0672C25.5966 31.0672 25.9351 30.7475 25.9351 30.3488C25.9351 29.9539 25.5909 29.6305 25.149 29.6192C25.0368 29.6164 24.9244 29.6185 24.8121 29.6207C24.6232 29.6243 24.4346 29.6279 24.2482 29.6079C24.1203 29.5929 23.951 29.5026 23.8909 29.3954C21.5063 25.1302 19.1292 20.8594 16.7616 16.5849C16.7014 16.4777 16.707 16.2802 16.7653 16.1693C16.9715 15.7744 17.1892 15.3845 17.4069 14.9948C17.5406 14.7554 17.6743 14.516 17.8053 14.2755C18.0423 13.8411 17.9407 13.4255 17.5646 13.2186C17.1904 13.0136 16.7879 13.1566 16.5397 13.5891C16.391 13.8478 16.2445 14.1087 16.0907 14.3826Z" fill="#7EA120"/>
</svg>
