<svg width="40" height="40" viewBox="0 0 40 40" fill="none" xmlns="http://www.w3.org/2000/svg">
<path fill-rule="evenodd" clip-rule="evenodd" d="M40 21.0023L21.0013 40H0V18.9977L18.9987 0L40 21.0023ZM6.521 22.0881C6.521 15.371 11.9608 9.9234 18.6684 9.9234C25.3759 9.9234 30.8158 15.3744 30.8158 22.0881C30.8158 28.8018 25.3759 34.2494 18.6684 34.2494C11.9608 34.2494 6.521 28.8053 6.521 22.0881ZM28.2086 20.2403C27.351 15.7474 23.4043 12.3563 18.6684 12.3563C13.9324 12.3563 9.98582 15.7474 9.12816 20.2403C9.45961 20.5791 10.9118 19.9358 10.9118 19.9358C14.2024 18.2112 18.6684 18.0127 18.6684 18.0127C18.6684 18.0127 23.1344 18.2112 26.425 19.9358C26.425 19.9358 27.8772 20.5791 28.2086 20.2403ZM9.13499 23.977C9.81156 27.4194 12.3025 30.2116 15.5726 31.3101C15.5726 31.3101 16.5909 28.8429 14.5133 26.5263C12.4392 24.2131 11.5747 23.977 11.5747 23.977C11.5747 23.977 10.4129 23.4671 9.13499 23.977ZM16.1091 22.0881C16.1091 23.5014 17.2538 24.6477 18.6684 24.6477C20.083 24.6477 21.2277 23.5048 21.2277 22.0881C21.2277 20.6715 20.083 19.5252 18.6684 19.5252C17.2538 19.5252 16.1091 20.6749 16.1091 22.0881ZM22.8235 26.5263C20.7459 28.8429 21.7642 31.3101 21.7642 31.3101C25.0342 30.2116 27.5252 27.4194 28.2018 23.977C26.9238 23.4671 25.7621 23.977 25.7621 23.977C25.7621 23.977 24.8976 24.2131 22.8235 26.5263Z" fill="#DD005C"/>
</svg>
